<?xml version="1.0"?>
<svg xmlns="http://www.w3.org/2000/svg" height="512px" viewBox="0 -1 512 512" width="512px" class=""><g><path d="m497 0h-161c-8.285156 0-15 6.714844-15 15v65h-65c-8.285156 0-15 6.714844-15 15v65h-65c-8.285156 0-15 6.714844-15 15v65h-65c-8.285156 0-15 6.714844-15 15v65h-66c-8.285156 0-15 6.714844-15 15v160c0 8.285156 6.714844 15 15 15h482c8.285156 0 15-6.714844 15-15v-480c0-8.285156-6.714844-15-15-15zm-81 400h-65v-50h131v50zm-160 0h-65v-50h130v50zm15-130h130v50h-130zm80-80h131v50h-131zm80-80h51v50h-51zm51 210h-51v-50h51zm-131-290h131v50h-131zm-80 80h130v50h-130zm-80 80h130v50h-130zm-80 80h130v50h-130zm-81 80h131v50h-131zm0 80h51v50h-51zm81 0h130v50h-130zm160 0h130v50h-130zm211 50h-51v-50h51zm0 0" data-original="#000000" class="active-path" data-old_color="#000000" fill="#FFFFFF"/></g> </svg>
